<?xml version="1.0" encoding="UTF-8"?>
<svg id="Layer_2" data-name="Layer 2" xmlns="http://www.w3.org/2000/svg" viewBox="0 0 2215.2 804.96">
  <defs>
    <style>
      .cls-1 {
        fill: #394f9f;
      }

      .cls-2 {
        fill: #ca232c;
      }

      .cls-3 {
        fill: #2a282f;
      }

      .cls-4 {
        fill: #cb2229;
      }

      .cls-5 {
        fill: #cb222a;
      }
    </style>
  </defs>
  <g id="Layer_1-2" data-name="Layer 1">
    <g>
      <path class="cls-5" d="M327.29,344.43c-43.3-19.2-97.55-15.44-133.87,16.34-40.4,35.36-41,93.58-1.01,129.52,35.17,31.62,84.62,35.54,128.16,20.12v-58.53h-56.63v-40.3h107.5v127.12c-23.73,15.19-51.05,24.58-79.19,27.34-90.92,8.91-191.09-48.32-184.79-149.23,5.58-89.49,101.24-138.41,182.87-130.91,11.97,1.1,26.04,3.63,36.96,8.14v50.37Z"/>
      <path class="cls-1" d="M1693.07,224.52c-4.46,4.6-8.37,10.52-12.81,15.01-36.02,36.32-104.82,65.74-149.84,28.13-43.74-36.54-96.13-123.38-157.4-127.61-11.82-.82-23.6.82-35.08,3.39-6.56,1.47-13.59,4.96-20.15,4.81,10.65-11.14,22.24-21.31,34.09-31.16,38.09-31.65,68.85-52.91,121.75-40.2,32.59,7.83,71.16,52.04,94.19,76.62,20.24,21.6,41.22,49.36,62.33,69.13,21.01,19.67,39.34,8.66,62.9,1.89Z"/>
      <path class="cls-4" d="M1417.61,222.6c-12.56,14.54-29.83,29.42-46.15,39.73-28.24,17.83-70.44,27.77-100.62,9.59-35.06-21.11-64.4-61.52-92.2-91.09-30.68-32.64-49.19-49.11-97.31-43.49-11.82,1.38-22.92,5.68-33.98,7.29-.89.13-2.77.85-3.1-.22,20.99-19.53,43.77-41.21,67.84-56.91,27.18-17.74,64.88-23.05,95.84-12.68,37.11,12.43,90.05,84.71,118.48,114.71,9.34,9.85,31.34,32.76,42.95,37.66,17.54,7.4,31.19-2.25,48.25-4.57Z"/>
      <path class="cls-5" d="M801.43,562.22h-58.07l-12.48-26.85c-35.92,36.83-100.16,42.35-144.13,17.42-75.43-42.76-60.03-138.5,19.33-165.22,55.45-18.67,118.56-.12,144.65,54.07,18.29,37.98,31.9,79.54,50.26,117.66l.44,2.92ZM639.02,428.19c-44.98,4.64-64.7,59.2-22.17,83.96,35.01,20.39,89.32,1.21,84.75-44.42-2.88-28.73-37.14-42.17-62.58-39.54Z"/>
      <path class="cls-1" d="M2068.35,562.22h-51.83c-2.95-7.16-4.83-15.04-8.21-22.02s-2.12-3.17-6.15.48c-70.25,63.67-187.08,7.31-164.48-87.66,20.02-84.13,142.93-97.04,182.08-19.24,19.22,38.2,29.81,85.56,47.93,124.79l.66,3.66ZM1924.17,429.13c-53.31,6.43-53.34,87.44,4.65,91.71,68.09,5.01,69.39-100.64-4.65-91.71Z"/>
      <path class="cls-1" d="M1446.08,534.08c-52.22,59.49-160.01,36.12-172.17-44.55-14.62-96.92,109.54-145.03,171.57-74.6,28.94,32.87,29.74,85.96.61,119.15ZM1362.69,429.13c-29.13,3.5-48.58,34.76-37.08,62.43,17.27,41.55,81.85,36.86,91.55-7.02,7.37-33.32-22.07-59.3-54.47-55.41Z"/>
      <path class="cls-1" d="M1687.31,562.22h-48.95v-94.5c0-6.08-6.53-17.38-10.59-22.04-20.46-23.49-59.15-22.44-77.54,3.02-1.93,2.67-7.85,14.39-7.85,17.1v96.42h-49.91c1.33-29.79-1.76-61.09-.04-90.71,5.25-90.19,120.13-120.97,175.65-53.66,7.44,9.01,19.22,31.56,19.22,43.15v101.22Z"/>
      <path class="cls-5" d="M940.6,284.95v47.97c-21.42-1.44-47.25,13.46-53.1,34.71-.31,1.14-1.61,6.47-1.61,7.03v77.23h54.71v40.3h-53.27c-.1,0-1.44,1.34-1.44,1.44v68.6h-55.67l-.04-185.69c1.91-51.08,47.36-85.85,95.55-90.61,4.88-.48,9.91.58,14.86-.97Z"/>
      <path class="cls-1" d="M1762.18,286.87v94.98h47.99c-.31.94.96,2.08.96,2.4v36.46c0,.1-1.34,1.44-1.44,1.44h-47.51v56.13c0,2.27,4.44,11.82,5.93,14.22,8.67,13.97,25.59,23.31,42.06,22.72v47.01c-46,1.35-89.9-32.28-96.67-78.46-.64-4.33-.04-8.83-1.26-13.13l.04-183.77h49.91Z"/>
      <path class="cls-1" d="M1221.49,438.15c-1.16,1.42-3.83,3.12-4.95,5.09-20.12-20.53-54.4-19.15-72.96,2.88-17.34,20.6-12.32,49.34,8.81,65.09,19.33,14.41,48.94,11.5,65.1-6.53l31.01,36.94c-9.83,8.78-21.19,16.49-33.86,20.65-67.42,22.12-139.54-26.88-130.07-100.28,9.69-75.12,106.24-105.7,161.16-56.5l-24.25,32.67Z"/>
      <path class="cls-5" d="M509.65,380.89v47.01c-22.19-.99-47.34,13.48-53.08,35.69-.36,1.38-1.63,7.11-1.63,7.97v90.67h-55.67c1.11-28.63-1.47-58.36-.04-86.87.18-3.52.57-9.03,1.01-12.42,6.63-51.15,60.45-84.27,109.41-82.04Z"/>
      <rect class="cls-5" x="992.42" y="381.85" width="58.55" height="183.25"/>
      <path class="cls-2" d="M1044.25,196.68v17.75c0,21.73,18.7,34.28,24.26,52.5,4.07,13.3,5.31,30.22.73,43.48-15.83,45.83-92.35,40.24-82.33-17.06,4.81-27.49,33.87-57.17,48.51-81.99,2.8-4.75,4.99-10.78,8.83-14.68ZM1043.29,255.2c-2.49-.27-1.53,0-1.94,1.41-4.85,16.5-18.77,43.04-4.77,57.6,8.11,8.42,23.05,6.14,24.89-5.81,3.67-23.87-15.57-32.03-18.18-53.19Z"/>
      <path class="cls-3" d="M1423.37,731.08c-26.35-1.68-27.63-29.56-14.23-47.33,12.89-17.09,41.27-28.74,56.45-8.32,2.45-5.86,6.05-29.09,9.11-32.64,1.28-1.49,6.53-1.01,8.64-1.91l-23.62,89.12-9.47,2.04c-.68-3.17,1.08-5.62,1.73-8.35,1.27-5.38-3.94.67-5.25,1.47-6.04,3.69-10.56,5.46-17.6,5.91-1.8.12-3.96.11-5.76,0ZM1440.47,674.7c-17.77,1.28-38.58,24.7-25.27,41.05,13.2,16.23,42.13-2.05,44.56-19.77,1.75-12.74-6.17-22.23-19.29-21.29Z"/>
      <path class="cls-3" d="M1285.16,731.08c-26.42-1.69-27.61-28.69-14.82-46.95,10.21-14.58,36.7-27.36,52.26-13.99,1.3,1.11,3.48,5.57,4.77,4.34s6.74-27.35,8.72-31.11c1.66-2.31,6.27-1.45,9.03-2.48l-23.99,88.27c-1.33,1.88-6.88,2.05-9.11,1.92-.96-.93,3.94-12.49.01-9.57-.08.06.16,1.39-.67,1.91-6.78,4.23-12.43,7.15-20.46,7.66-1.8.12-3.96.11-5.76,0ZM1277.82,717.32c9.05,8.48,24.35,3.83,32.8-3.48,20.87-18.05,10.45-48.16-18.28-36.5-13.65,5.54-27.75,27.6-14.52,39.99Z"/>
      <path class="cls-3" d="M1854.32,731.08c-6.43-.99-9.61-.73-14.77-5.86-28.67-28.5,31.62-84.55,57.95-49.78l8.72-32.07c1.65-2.3,6.28-1.45,9.04-2.48l-24,88.26-10.05,2.89c-.83-.86,4.4-9.39,2.4-11.5-6.35,6.23-14.47,10.35-23.52,10.55-1.92.04-3.84-.03-5.76,0ZM1871.41,674.72c-17.61,1.39-38.28,26.43-24.19,41.88,10.05,11.02,28.97,3.23,37.34-6.61,12.42-14.6,8.85-37.01-13.16-35.27Z"/>
      <path class="cls-3" d="M1756.42,730.12c-10.03-1.69-11.18-3.23-17.27-11.51l-8.87,33.35-10.34,2.14,24.18-85.67c1.57-3.17,7.53-1.92,10.36-3.54l-3.36,12.45c11.84-11.94,34.61-19.15,46.4-3.17,16.54,22.42-10.97,55.89-36.31,55.96-1.6,0-3.2,0-4.8,0ZM1751.96,685.37c-13.36,14.6-10.09,37.73,13.59,35.16,16.57-1.79,35.37-25.72,22.08-40.32-9.75-10.71-27.29-4.01-35.67,5.15Z"/>
      <path class="cls-3" d="M1198.55,728.94c-1.7,1.68-7.79.96-10.33,2.14l1.44-6.69c-9.65,8.8-31.69,11.54-36.74-3.6-6.84-20.46,21.29-43.18,40.35-33.62,2.74,1.37,3.02,3.08,4.56,5.02.67.85,1.08.32,1.42-.44,11.26-24.62-17.46-19.97-31.19-13.44,2.69-9.61,5.89-12.47,15.84-13.42,18.6-1.78,31.48-.57,27.08,21.31-.96,4.79-10.86,41.17-12.44,42.73ZM1181.27,693.92c-21.57.83-28.49,34.6-.91,27.87,17.93-4.37,20.49-28.62.91-27.87Z"/>
      <path class="cls-3" d="M1373.47,731.08v-4.79c-4.84,1.08-7.75,4.03-13.07,4.69-8.71,1.07-18.85.35-22.65-8.81-8.1-19.53,18.56-43.36,37.86-35.92l8.41,6.46c4.88-17.4.79-20.52-16.78-19.18l-14.9,4.3c1.89-2.33,3.33-7.66,4.9-9.49,3.28-3.81,21.87-3.97,27.15-3.35,6.03.72,11.11,3.6,12.01,10.05,1.89,13.44-10.91,38.88-12.9,53.13-1.58,2.41-7.32,1.85-10.04,2.91ZM1365.56,693.92c-21.95.87-28.13,35.43-.2,27.62,17.35-4.85,20.1-28.4.2-27.62ZM1373.94,724.37v.96c.62-.32.62-.64,0-.96Z"/>
      <path class="cls-3" d="M1962.76,713.82c2.16,9.21,1.74,9.86-6.23,13.43-16.21,7.25-43.28,6.36-45.57-15.84-2.88-27.86,29.08-56.06,56.16-44.62,3.5,1.48,12.85,9.83,10.58,13.44l-55.15,31.29c6.83,15.62,29.14,10.8,40.23,2.3ZM1964.69,679.26c1.07-1.45-2.9-3.74-3.94-4.2-16.01-7.14-40.72,10.74-40.2,28.2l44.14-24Z"/>
      <path class="cls-3" d="M2038.6,665.84l-44.15,54.69h30.71c-.39,1.23-4.26,9.59-4.8,9.59h-46.07l45.11-54.69h-28.79c.88-1.33,4.28-9.59,5.28-9.59h42.71Z"/>
      <path class="cls-3" d="M1103.13,679.6c12.26-13.23,36.53-21.72,51.48-8.48-1.43,1.04-7.33,7.99-8.13,7.99-.42,0-4.97-3.37-7.39-3.98-15-3.74-30.98,7.53-35.63,21.6-7.36,22.29,15.56,30.88,32.39,19.98,1.6,2.13,4.52,6.9,2.47,9.09-1.28,1.37-10.95,4.7-13.22,5.03-35.39,5.1-42.25-29.36-21.98-51.23Z"/>
      <path class="cls-3" d="M1520.31,701.34c.26-1.98.59-6.89,2.52-7.55,4.41-1.51,23.83,1.26,26.15-.25,1.84-3.35,6.95-28.32,8.39-28.72,1.93-.53,5.76.47,8.05.06l-6.72,28.78h25.91c.09,1.5-1.46,7.46-2.55,7.72-4.52,1.09-23.92-1.31-26.11.09-2.47,4.03-6.6,27.58-9.38,28.52-2.13.72-5.65-.19-8.03.12l7.68-28.77h-25.91Z"/>
      <path class="cls-3" d="M978.99,701.34c-.47-.44,1.53-7.47,2.55-7.72,4.52-1.09,23.92,1.31,26.11-.09,2.34-3.37,6.95-28.31,8.4-28.71,1.93-.53,5.76.48,8.05.06l-6.71,28.78h25.91c.09,1.5-1.46,7.46-2.55,7.72-4.69,1.13-23.6-1.39-26.08.12l-7.88,28.57-9.56.04c2.87-9.41,6.53-19.03,7.68-28.77h-25.91Z"/>
      <path class="cls-3" d="M1243.89,642.82l-23.96,85.68-10.58,2.58,23.76-85.13c.34-2.71,10.06-3.76,10.78-3.12Z"/>
      <path class="cls-3" d="M1242.72,728.96c-.35.36-8.83,2.19-9.85,2.14-.99-.1-.47-1.5-.31-2.22,4.41-19.97,12.49-40.45,17.24-60.49,1.73-2.8,7.52-1.8,10.4-3.51l-17.48,64.07Z"/>
      <path class="cls-3" d="M1830.32,664.89l-17.24,63.61-10.58,2.58,17.03-62.12c1.74-3.14,7.49-2.85,10.79-4.08Z"/>
      <path class="cls-3" d="M1833.19,641.86c.22,2.66,3.37,6.34,2.75,8.92-.35,1.46-7.58,8.62-9.41,7.35-.35-.24-3.03-7.04-2.8-7.92.32-1.22,8.33-9.17,9.46-8.35Z"/>
      <path class="cls-3" d="M1263.07,641.86c4.86,8.43,1.95,13.17-6.69,16.31.02-2.59-3.39-5.53-2.77-7.95.32-1.22,8.33-9.17,9.46-8.35Z"/>
      <path class="cls-1" d="M1860.08,731.08c-1.56,2.6-4.77.15-5.76,0,1.92-.03,3.84.04,5.76,0Z"/>
      <path class="cls-1" d="M1290.92,731.08c-.97,1.57-4.85,1.54-5.76,0,1.8.11,3.96.12,5.76,0Z"/>
      <path class="cls-1" d="M1429.13,731.08c-.97,1.57-4.85,1.54-5.76,0,1.8.11,3.96.12,5.76,0Z"/>
      <path class="cls-1" d="M1761.22,730.12c-1.33,2.52-3.89.15-4.8,0,1.6,0,3.2,0,4.8,0Z"/>
      <path class="cls-3" d="M1670.84,673.36c-.91.56-3.39-.04-4.89.38-24.2,6.84-22.49,34.93-30,54.46l-10.06,2.89,17.48-64.06,10.32-1.67-2.39,10.07c6.54-7.64,14.48-11.34,24.47-12.45.36.45-4.45,10.09-4.94,10.4Z"/>
      <path class="cls-3" d="M1718.82,728.99l-10.38,2.09.48-6.71c-8.05,9.25-31.03,10.43-36.07-2.33-9.27-23.49,28.66-50.7,46.13-29.33,1.25-8.15,6.28-17.67-5.35-19.11-9.14-1.13-17.68.64-25.84,4.7.89-2.57,3.85-10.41,5.97-11.29,7.82-3.24,34.05-5.03,37.28,5.5,3.96,12.89-11.04,42.28-12.22,56.48ZM1701.39,694.04c-20.57.07-29.3,30.89-4.95,28.41,19.66-2,26.52-28.49,4.95-28.41Z"/>
    </g>
  </g>
</svg>