<?xml version="1.0" encoding="UTF-8"?>
<svg id="Layer_2" data-name="Layer 2" xmlns="http://www.w3.org/2000/svg" viewBox="0 0 867.43 220.09">
  <defs>
    <style>
      .cls-1 {
        fill: #fbfbfe;
      }
    </style>
  </defs>
  <g id="Layer_1-2" data-name="Layer 1">
    <g>
      <g>
        <g>
          <path class="cls-1" d="M97.28,121.66c-15.25-7.28-35.37-7.35-50.25.81-32.71,17.91-28.85,58.25,4.86,72.16,13.02,5.37,30.02,5.15,42.74-.74v-25.4h-24.76v-17.67h46.86v55.88c-6.32,4.49-14.08,7.77-21.57,9.81C53.71,227.81-.5,204.25,0,156.32c.48-45.61,51.92-67.05,91.54-58.74,1.9.4,4.21.6,5.74,1.78v22.31Z"/>
          <path class="cls-1" d="M306.84,217.08h-25.42c-2.21-3.32-2.95-7.47-4.99-10.92-.8-1.36-1.59.45-2.54,1.19-14.25,11.14-29.05,14.61-47.1,11.3-17.09-3.13-34.73-18.23-36.22-36.26-3.91-47.48,69.05-59.62,91.43-23.33,8.79,19.09,16.78,38.59,24.84,58.01ZM234.25,158.01c-14.87,1.59-25.78,19.31-15.39,31.91,13.95,16.93,46.98,8.96,44.17-14.98-1.53-13.04-17.52-18.13-28.78-16.92Z"/>
          <path class="cls-1" d="M177.75,137.56v20.32c-7.43-.64-16.97,3.89-20.97,10.19-.58.92-2.9,6.12-2.9,6.82v42.19h-24.32v-43.07c0-13.25,12.87-25.56,23.86-30.94,7.37-3.6,16.15-5.28,24.33-5.51Z"/>
        </g>
        <g>
          <path class="cls-1" d="M368.74,95.6v20.76c-9.53-.52-19.97,5.32-23.38,14.41-.19.51-.94,2.33-.94,2.59v35.56h24.32v17.23h-24.32v30.92h-24.32v-85.04c0-3.54,3.36-11.46,5.3-14.59,9.02-14.56,26.45-22.19,43.34-21.86Z"/>
          <g>
            <rect class="cls-1" x="391.73" y="138.45" width="25.64" height="79.96"/>
            <path class="cls-1" d="M414.28,56.72v7.29c0,8.4,6.05,13.09,9.23,19.49s4.13,16.09,1.84,22.93c-6.85,20.51-40.79,17.37-36.17-7.42,2.09-11.24,10.72-19.56,16.79-28.72,2.69-4.06,4.79-8.55,7.33-12.55.25-.39.41-.98.97-1.02ZM420.76,108.7c4.74-4.86-.97-16.12-4.79-20.32l-2.57-7.36c-.85,8.42-8.5,16.41-4.07,25.05,2.1,4.09,7.82,6.33,11.44,2.63Z"/>
          </g>
        </g>
        <path class="cls-1" d="M503.87,14.03c13.98,12.94,25.05,28.76,38.39,42.26,3.36,3.4,12.05,11.95,16.06,13.55,8.04,3.22,12.87-1.15,19.86-1.98.43-.05,1.39-.36,1,.56-.18.43-4.95,5.05-5.74,5.75-17.85,16.01-42.32,28.19-64.08,11.44-18.43-14.19-31.15-36.23-48.7-49.4-13.66-10.25-30.07-7.04-45.5-3.35,6.28-6.66,13.32-12.91,20.56-18.55,10.2-7.94,18.35-13.29,31.81-14.15,16.4-1.06,24.76,3.14,36.34,13.87Z"/>
      </g>
      <g>
        <path class="cls-1" d="M626.77,17.56c14.88,13.6,28.42,30.13,42.38,44.9,2.36,2.5,3.93,5.26,6.89,7.25,8.99,6.05,15.54,1.21,24.72-.62-13.94,17.15-39.13,31.78-61.68,23.86-12.44-4.37-26.59-24.05-36-33.83-10.1-10.49-26.07-25.95-40.92-28.02-9.1-1.27-17.71,1.07-26.29,3.75,1.88-2.57,4.31-4.86,6.67-7.02,12.29-11.22,27.61-24.69,44.83-25.89,18.65-1.29,26.41,3.73,39.41,15.61Z"/>
        <g>
          <g>
            <path class="cls-1" d="M867.43,217.52h-22.33c-1.53-1.03-4.22-11.94-4.87-11.93-4.89,4.45-9.7,8.48-15.9,11.06-38.47,15.95-77.52-26.79-52.31-61.55,8.66-11.94,27.04-18.64,41.64-16.6,13.38,1.88,26.97,10.56,32.76,22.92,7.94,16.96,12.71,36.92,20.58,54.09l.42,2.01ZM802.79,158.45c-13.8,1.64-21.72,20.29-13.61,31.46,13.84,19.05,45.33,6.06,38.68-17.45-3.11-10.99-14.54-15.27-25.08-14.01Z"/>
            <path class="cls-1" d="M731.71,96.48v41.53h21s.66.62.66.66v15.9s-.62.66-.66.66h-21v23.19c0,.5,1.04,4.12,1.31,4.88,2.8,7.84,12.01,13.8,20.35,13.46v20.1c0,.22-.73.73-1.1.68-3.77-.53-7.41-.75-11.11-1.73-17.54-4.61-30.61-20.39-31.13-38.69l.02-80.64h21.66Z"/>
          </g>
          <g>
            <path class="cls-1" d="M524.99,152.77c20.27-24.08,66.96-17.2,75.21,14.38,9.49,36.35-28.42,63.73-61.1,48.24-23.81-11.28-31.32-42.17-14.11-62.62ZM575.49,191.3c16.22-19.65-12.3-44.91-31.44-27.66-22.47,20.25,12.96,50.06,31.44,27.66Z"/>
            <path class="cls-1" d="M613.44,217.52c-.49-.15-.73-1.02-.69-1.52,1.5-28.11-7.71-57.32,22.11-72.93,26.12-13.67,62.39,1.81,64.12,32.71v41.74s-21.66,0-21.66,0v-42.19c0-2.06-2.79-7.34-4.19-9.06-8-9.84-23.04-10.99-32.29-2.21-2.44,2.31-6.4,8.36-6.4,11.72v41.75h-21Z"/>
            <path class="cls-1" d="M488.73,163c-1.7-1.14-2.78-2.38-4.89-3.28-10.82-4.66-25.43.86-29.1,12.32-7,21.92,21.62,36.35,36.23,19.87l12.99,15.32c.66.86.22,1.41-.43,2.08-10.78,11.29-33.51,12.65-47.13,6.53-23.75-10.69-32.48-41.62-15.81-62.34,12.4-15.41,37.21-19.48,54.73-10.57,2.92,1.48,5.22,3.78,8.24,5.02l-11.91,15.48c-1.14,1.3-1.9.27-2.93-.43Z"/>
          </g>
        </g>
      </g>
    </g>
  </g>
</svg>