<?xml version="1.0" encoding="UTF-8"?>
<svg id="Layer_2" data-name="Layer 2" xmlns="http://www.w3.org/2000/svg" viewBox="0 0 1960 683.49" style="fill: #ffffff;">
  <g id="Layer_1-2" data-name="Layer 1">
    <g>
      <path d="M219.9,223.93v50.85c-33.43-15.95-77.22-16.14-110.58.27-64.42,31.7-74.41,111.7-14.51,154.03,34.68,24.51,80.19,26.27,119.33,11.68v-58.05l-56.63-1.44v-39.34h106.54v126.16c-56.88,38.66-142.57,38.02-199.76.13-84.67-56.1-86.05-164.5-2.1-222.06,45.37-31.1,105.31-37.28,157.71-22.24Z"/>
      <path d="M1583.77,155.82c-29.75,37.17-78.63,65.98-127.87,57.3-34.89-6.15-68.27-54.35-92.39-79.39-30.93-32.12-71.06-71.78-119.86-63.19l-31.31,7.08c16.21-16.37,33.94-31.62,52.34-45.54,30.54-23.1,56.54-32.3,95.68-25.68,24.09,4.07,39.18,17.86,56.42,33.79,30.79,28.43,57.33,61.1,85.87,91.65,9.52,10.19,25.13,29.82,38.83,32.18,15.47,2.67,27.98-4.09,42.28-8.2Z"/>
      <path d="M1309.26,152.94c2.29,1.86-26.51,25.41-28.89,27.23-32.43,24.94-79.06,45.11-117.87,21.13-36.98-22.84-66.08-65-96.03-95.89-36.72-37.86-57.85-45.81-111.54-34.7-5.3,1.1-10.75,3.59-16.13,3.06,14.88-14.9,30.88-28.82,47.55-41.7,16.96-13.11,30.47-23.61,52.07-28.54,62.51-14.26,90.89,16.39,129.3,58.23,25.01,27.24,56.04,70.4,85.57,91,20.03,13.98,34.88,6.01,55.98.17Z"/>
      <path d="M694.04,492.57h-58.55c-3.26-8.2-6.4-17.83-10.34-25.64-.44-.87.24-1.58-1.67-1.26-1.68.29-9.59,8.21-12.07,10.02-56.25,41.08-160.15,23.34-178.16-50.08-27.03-110.2,148.66-157.93,204.56-63.45l56.22,130.41ZM529.72,358.53c-33.64,3.62-57.8,41.53-36.11,71.03,28.68,39.01,106.01,22.1,101.45-29.46-2.83-32.01-37.12-44.6-65.34-41.57Z"/>
      <path d="M1960,491.61h-50.87c-2.93-6.74-5.23-18.3-8.84-24.26-.55-.9-.81-1.94-2.17-1.64-.99.23-12.07,11.65-14.98,13.82-55.25,41.09-147.79,8.78-154.32-62.4-10.12-110.24,142.3-144.5,185.56-47.34,16.86,37.85,28.35,79.98,44.96,118.16l.66,3.66ZM1820.64,358.54c-69.36,5.2-50.89,110.72,19.2,91.14,53.08-14.83,40.71-95.63-19.2-91.14Z"/>
      <path d="M1259.16,312.48c95.39-2.8,138.53,113.69,60.4,167.83-51.38,35.6-131.86,13.5-149.71-48.41-17.6-61.08,27.15-117.59,89.31-119.41ZM1259.16,358.54c-64.26,4.85-56.64,97.73,8.34,92.76,62.51-4.78,55.24-97.56-8.34-92.76Z"/>
      <path d="M1579.93,491.61h-47.99v-90.67c0-22.7-26.26-42.24-47.48-42.75-20.44-.48-50.42,17.54-50.42,39.87v93.54h-47.99v-96.42c0-14.85,11.9-38.28,21.58-49.42,54.74-62.99,166.84-32.26,172.33,54.18l-.04,91.67Z"/>
      <path d="M833.21,216.25v46.05c-19.99.03-42.96,10.98-51.35,29.74-.57,1.28-3.36,9.39-3.36,10.07v81.07h54.71v39.34h-54.71v68.6l-1.44,1.44h-53.27v-194.28c0-3.84,3.5-14.87,5.02-18.96,15.02-40.28,62.64-64.86,104.39-63.07Z"/>
      <path d="M1653.83,218.17v94.02h47.99v39.34h-47.99v54.21c0,1.43,2.38,8.43,3.11,10.32,7.15,18.71,25.42,29.18,44.88,30.45v45.09c-40.17,2.05-81.43-26.77-92.39-65.47-1.06-3.73-3.59-13.22-3.59-16.56v-191.41h47.99Z"/>
      <path d="M1070.08,312.48c24.24-.74,49.31,6.74,67.26,23.34l-28.19,36.77c-28.29-28.66-82.29-11.2-84.02,30.21-1.84,44.22,55.59,64.92,84.98,33.19l30.17,35.1c.27,1.5-9.29,8.5-11.15,9.77-52.15,35.54-131.6,11.61-148.59-50.67-16.47-60.38,28.18-115.84,89.54-117.72Z"/>
      <path d="M402.26,311.24v46.05c-13.3,1.22-25.67,3.64-36.39,12.07-7.04,5.54-18.32,19.52-18.32,28.7v94.5h-54.71v-98.34c0-7.98,6.63-24.31,10.74-31.47,19.23-33.48,60.75-52.25,98.67-51.52Z"/>
      <rect x="885.04" y="313.15" width="58.55" height="181.33"/>
      <path d="M934.96,128.95c1.58-.26.88,1.3.95,2.38.77,12.95,1.58,26.61,7.86,38.21,3.1,5.73,8.2,10.65,11.5,16.33,11.55,19.87,13.25,51.66-2.55,69.73-18.37,21.01-60.64,21.65-71.3-7.42-15.24-41.57,41.03-83.25,53.54-119.23ZM935.9,183.63c-2.49-.27-1.53,0-1.94,1.41-3.73,12.71-12.54,32.82-11.37,45.01,2.42,25.08,34.18,27.64,32.49,1.09-1.25-19.65-18.02-28.31-19.18-47.51Z"/>
      <path d="M1238.24,572.21l-25.11,88.11-8.47,1.11,2.87-11.51c-18.46,18.08-54.48,16.68-51.85-15.87,2.25-27.88,44.39-54.7,64.33-27.31l8.82-33.4,9.42-1.13ZM1191.94,605.07c-17.21,2.45-35.8,26.54-22.35,41.99,9.47,10.88,27.95,3.94,36.4-4.93,14.49-15.21,10.74-40.58-14.05-37.06Z"/>
      <path d="M1808.36,572.21l-25.11,88.11-8.47,1.11,2.87-11.51c-23.34,22.78-63.56,10.79-49.41-25.89,8.78-22.74,44.58-41.76,61.88-17.28l8.62-32.91,9.63-1.62ZM1763.03,605.1c-12.99,1.45-26.45,13.77-27.61,27.08-2.18,25.13,26.08,24.57,40.19,10.44,14.43-14.45,12.06-40.27-12.59-37.52Z"/>
      <path d="M1351.33,660.3l-8.47,1.11,2.39-10.56c-13.98,12.24-41.87,17.47-49.89-3.84-11.87-31.58,39.76-71.76,62.84-40.28l8.83-31.96c1.96-3.47,6.3-1.89,9.41-3.54l-25.11,89.06ZM1331.11,605.07c-17.6,2.29-36.4,25.35-23.75,41.48,10.57,13.48,33.74,2.41,41.09-9.76,9.63-15.94,3.25-34.39-17.34-31.72Z"/>
      <path d="M1646.15,596.19l-2.87,12.47c9.64-10.36,28.4-17.81,41.2-9.05,28.19,19.27-7.46,68.49-39.32,60.41-6.33-1.61-9.63-7.4-13.4-12.02l-9.51,33.94-8.73,1.55,23.88-85.78,8.75-1.51ZM1663.19,605.07c-16.13,1.99-34.43,24.27-23.77,39.57,9.48,13.6,31.13,5.28,39.36-5.77,11.47-15.41,6.26-36.51-15.59-33.81Z"/>
      <path d="M1870.74,610.56l-56.52,31.17c4.14,11.14,16.66,11.42,26.81,9.67,5.41-.93,9.42-4.41,14.34-6.28l.8,8.46c-14.65,8.84-39.77,13.86-49.78-4.11-11.03-19.8,8.79-45.49,27.6-52.11,14.06-4.94,31.72-2.56,36.74,13.2ZM1813.17,633.6c4.52-2.93,44.73-22.82,44.13-25.4-.23-.96-2.78-2.44-3.82-2.91-16.16-7.31-41.39,10.47-40.31,28.31Z"/>
      <path d="M1610.44,659.32l-9.4,1.14c3.41-10.64,1.89-6.21-3.52-3.03-10.33,6.07-28.79,6.93-32.5-7.49-5.82-22.66,30.45-47.26,46.57-25.93.51-5.79,5.55-12.63.99-17.77-4.64-5.24-25.33-1.9-31.69,1.45,2.2-3.39,2.74-8.33,6.71-10.07,7-3.07,28.23-4.17,33.63,1.9,4.32,4.85,2.54,11.25,1.42,16.83-2.87,14.24-8.65,28.83-12.21,42.97ZM1591.21,624.26c-21.34,2.77-25.08,37.44,3.38,27.36,18.16-6.43,17.73-30.1-3.38-27.36Z"/>
      <path d="M1275.54,659.38l-9.46,1.08c-.69-1.28,3.47-7.01.49-6.7-23.54,21.92-52.61-4.26-28.37-28.35,7.64-7.6,24.95-13.8,33.98-6.06,2.39,2.05,1.66,5.01,4.44,4.67.93-6.27,6.79-18.51-3.41-20.09-8.88-1.38-19.15.17-27.3,3.77,3.27-9.81,7.8-11.6,17.77-12.45,17.04-1.45,27.89,1.13,24.19,20.35-2.74,14.22-9.54,29.35-12.34,43.79ZM1256.25,624.25c-21.74,2.66-24.95,36.64,2.67,27.63,17.98-5.86,19.11-30.3-2.67-27.63Z"/>
      <path d="M1081.8,660.46l.95-6.71c-13.91,12.71-40.53,11.21-37.34-12.87,1.3-9.78,12.67-21.61,22.17-23.89,5.59-1.34,15.61-1.45,20.22,2.2,2.08,1.64,1.68,5.33,4.55,4.83.53-8.37,7.1-18.76-5.27-20.15-8.65-.97-17.58.15-25.42,3.84l4.51-9.62c9.8-2.95,35.97-7.33,37.73,7.2,1.78,14.72-10.22,37.6-12.57,52.72l-9.53,2.46ZM1071.97,624.25c-18.48,2.26-25.26,29.24-5.22,29.13,23.91-.13,30.2-32.19,5.22-29.13Z"/>
      <polygon points="1930.25 597.14 1887.06 650.87 1917.77 650.87 1910.58 660.47 1868.82 660.47 1912.97 605.78 1884.18 605.78 1888.5 597.14 1930.25 597.14"/>
      <path d="M1028.99,647.04l2.64,7.21c-13.14,10.64-37.15,10.77-44.75-6.84-12.52-28.99,33.85-68.03,59.35-45.84l-6.39,6.99c-1.86.47-4.81-2.49-7.01-3.25-19.41-6.74-44.85,17.1-36.94,36.93,5.25,13.14,23.11,11.28,33.1,4.8Z"/>
      <polygon points="871.6 631.68 874.1 623.95 901.31 623.97 908.11 596.23 916.71 596.19 909.03 624.01 935.91 624.01 932.39 631.53 906.25 631.78 897.84 660.51 890.78 659.97 898.47 631.68 871.6 631.68"/>
      <polygon points="1412.92 631.68 1415.43 623.95 1441.76 623.57 1449.43 596.23 1458.03 596.19 1450.35 624.01 1477.23 624.01 1473.74 631.55 1447.57 631.78 1439.17 660.51 1432.1 659.97 1439.8 631.68 1412.92 631.68"/>
      <path d="M1135.54,573.16l-23.21,84.73c-.42,2.05-8.92,3.06-9.42,2.57l23.02-84.68,9.6-2.62Z"/>
      <path d="M1567.44,594.27c-2.34,9.93-8.86,8.51-15.99,12.31-17.21,9.17-17.06,36.37-23.49,52.8l-9.47,1.08,17.75-62.35,9.11-1.91c.17,2.92-1.8,5.27-1.93,8.15-.19,4.26,2.75-.7,2.95-.86,5.82-5.03,13.06-9.34,21.06-9.21Z"/>
      <path d="M1722.94,596.19l-17.45,61.7c-1.33,2.55-7.61,2.57-10.39,2.56l17.48-60.71c1.65-3.51,6.96-3.04,10.35-3.55Z"/>
      <path d="M1152.82,596.19l-17.45,61.7c-.42,2.05-8.92,3.06-9.42,2.57l16.52-60.71c1.65-3.51,6.96-3.04,10.35-3.55Z"/>
      <path d="M1725.81,573.16l2.63,7.21-7.9,8.12c-1.7-1.88-3.92-5.38-3.22-7.92.34-1.25,7.47-8.32,8.49-7.41Z"/>
      <path d="M1155.69,573.16l2.62,7.21-7.89,8.12c-1.11,0-3.59-6.39-3.22-7.94.28-1.19,7.36-8.21,8.48-7.39Z"/>
    </g>
  </g>
</svg>